<svg id="Layer_1" data-name="Layer 1" xmlns="http://www.w3.org/2000/svg" viewBox="0 0 233.84 276.9"><defs><style>.cls-1{fill:#e6e6e6;}.cls-1,.cls-2{fill-rule:evenodd;}.cls-2{fill:#1a1a1a;}.cls-3{fill:none;stroke:#999;stroke-miterlimit:2.61;stroke-width:1px;}</style></defs><title>mechdev-logo with guidelines</title><path class="cls-1" d="M399.78,402l-74.5,43V329.22l74.5,43V402Zm50.93-.36L525.83,445h0V329.22h0L450.7,372.6v29Z" transform="translate(-308 -286.39)"/><path class="cls-2" d="M425.55,346.84l12.76,7.63,13,7.57L425.55,362l-25.77.05,13-7.57,12.76-7.63Zm0,30.2a10.08,10.08,0,1,1-10.08,10.08A10.08,10.08,0,0,1,425.55,377Zm-24.72,64.68,49.44-29.44v13.12l-49.44,29.44V441.71Zm-4.5,47.59,58.45-34.47v15.51l-58.45,34.47V489.3Zm-4.5,55.29,67.46-39.78v17.9L391.82,562.5v-17.9Z" transform="translate(-308 -286.39)"/><path class="cls-3" d="M387.49,324.39l103.14,60.83m-109.27,27.4h87.11M378,455.16h97.18m-105.56,50H475.14M463.61,324.39,360.47,385.22m42.67-10.32-94.89-54.79M446.7,374.9l94.89-54.79M403.14,400l-94.89,54.79M446.7,400l94.89,54.79m-78-50.19L378,455.16M469.63,446,369.58,505m100.72-6.78L360.86,562.79m0,0H475.14M325.33,286.89H525.78V487.34H325.33V286.89ZM400.48,362h50.16v50.16H400.48V362Z" transform="translate(-308 -286.39)"/></svg>